<svg xmlns="http://www.w3.org/2000/svg" width="45" height="27" viewBox="0 0 45 27">
  <defs>
    <style>
      .cls-1 {
        fill: #fff;
      }
    </style>
  </defs>
  <path id="Icon_awesome-bicycle" data-name="Icon awesome-bicycle" class="cls-1" d="M36.036,13.5a8.978,8.978,0,0,0-3.265.6L27.309,5.3a1.687,1.687,0,0,0-1.434-.8h-4.5A1.125,1.125,0,0,0,20.25,5.625V6.75a1.125,1.125,0,0,0,1.125,1.125h3.561l1.047,1.688H18V8.438a1.125,1.125,0,0,0-1.125-1.125H10.726A1.718,1.718,0,0,0,9,9.031a1.687,1.687,0,0,0,1.687,1.657h3.426l-2.068,3.341A9,9,0,1,0,17.717,24.75h3.659a1.687,1.687,0,0,0,1.435-.8l6.044-9.764,1.05,1.692a8.976,8.976,0,0,0-2.9,6.64,9.116,9.116,0,0,0,8.911,8.98,9,9,0,1,0,.125-18Zm-22.9,5.187a5.614,5.614,0,0,1,1.381,2.688H11.467l1.664-2.688ZM9,28.125a5.625,5.625,0,1,1,1.2-11.119L7,22.174A1.689,1.689,0,0,0,8.438,24.75h5.716A5.632,5.632,0,0,1,9,28.125Zm11.435-6.75h-2.5a8.982,8.982,0,0,0-2.98-5.627l1.74-2.811h8.968l-5.223,8.438ZM35.7,28.117a5.62,5.62,0,0,1-3.958-9.283l3.124,5.033a1.125,1.125,0,0,0,1.549.363l.956-.593a1.125,1.125,0,0,0,.363-1.549L34.6,17.051A5.625,5.625,0,1,1,35.7,28.117Z" transform="translate(0 -4.5)"/>
</svg>
